<svg id="banner" xmlns="http://www.w3.org/2000/svg" width="363.279" height="506.129" viewBox="0 0 363.279 506.129">
  <g id="Group_41" data-name="Group 41" transform="translate(54.84 203.962)">
    <g id="Group_5" data-name="Group 5" transform="translate(0 34.873)">
      <g id="Group_4" data-name="Group 4">
        <g id="Group_1" data-name="Group 1">
          <path id="Path_1" data-name="Path 1" d="M546.416,698.495l-74.851,43.321L419.3,711.775,494.151,668.5Z" transform="translate(-419.3 -668.5)" fill="#f4f4f4"/>
        </g>
        <g id="Group_2" data-name="Group 2" transform="translate(52.265 29.995)">
          <path id="Path_2" data-name="Path 2" d="M609.851,734.9l-.045,3.478L535,781.654v-3.433Z" transform="translate(-535 -734.9)" fill="#d6d6d6"/>
        </g>
        <g id="Group_3" data-name="Group 3" transform="translate(0 43.275)">
          <path id="Path_3" data-name="Path 3" d="M471.565,794.34v3.433L419.3,767.778V764.3Z" transform="translate(-419.3 -764.3)" fill="#d6d6d6"/>
        </g>
      </g>
    </g>
    <g id="Group_10" data-name="Group 10" transform="translate(0 29.904)">
      <g id="Group_9" data-name="Group 9">
        <g id="Group_6" data-name="Group 6">
          <path id="Path_4" data-name="Path 4" d="M546.416,687.495,471.565,730.77,419.3,700.776,494.151,657.5Z" transform="translate(-419.3 -657.5)" fill="#f4f4f4"/>
        </g>
        <g id="Group_7" data-name="Group 7" transform="translate(52.265 29.995)">
          <path id="Path_5" data-name="Path 5" d="M609.851,723.9l-.045,3.478L535,770.654v-3.478Z" transform="translate(-535 -723.9)" fill="#d6d6d6"/>
        </g>
        <g id="Group_8" data-name="Group 8" transform="translate(0 43.275)">
          <path id="Path_6" data-name="Path 6" d="M471.565,783.295v3.478L419.3,756.778V753.3Z" transform="translate(-419.3 -753.3)" fill="#d6d6d6"/>
        </g>
      </g>
    </g>
    <g id="Group_15" data-name="Group 15" transform="translate(0 24.89)">
      <g id="Group_14" data-name="Group 14">
        <g id="Group_11" data-name="Group 11">
          <path id="Path_7" data-name="Path 7" d="M546.416,676.44l-74.851,43.275L419.3,689.675,494.151,646.4Z" transform="translate(-419.3 -646.4)" fill="#f4f4f4"/>
        </g>
        <g id="Group_12" data-name="Group 12" transform="translate(52.265 30.04)">
          <path id="Path_8" data-name="Path 8" d="M609.851,712.9l-.045,3.478L535,759.654v-3.478Z" transform="translate(-535 -712.9)" fill="#d6d6d6"/>
        </g>
        <g id="Group_13" data-name="Group 13" transform="translate(0 43.275)">
          <path id="Path_9" data-name="Path 9" d="M471.565,772.24v3.478L419.3,745.678V742.2Z" transform="translate(-419.3 -742.2)" fill="#d6d6d6"/>
        </g>
      </g>
    </g>
    <g id="Group_20" data-name="Group 20" transform="translate(0 19.921)">
      <g id="Group_19" data-name="Group 19">
        <g id="Group_16" data-name="Group 16">
          <path id="Path_10" data-name="Path 10" d="M546.416,665.395,471.565,708.67,419.3,678.675,494.151,635.4Z" transform="translate(-419.3 -635.4)" fill="#f4f4f4"/>
        </g>
        <g id="Group_17" data-name="Group 17" transform="translate(52.265 29.995)">
          <path id="Path_11" data-name="Path 11" d="M609.851,701.8l-.045,3.478L535,748.554v-3.478Z" transform="translate(-535 -701.8)" fill="#d6d6d6"/>
        </g>
        <g id="Group_18" data-name="Group 18" transform="translate(0 43.275)">
          <path id="Path_12" data-name="Path 12" d="M471.565,761.195v3.478L419.3,734.678V731.2Z" transform="translate(-419.3 -731.2)" fill="#d6d6d6"/>
        </g>
      </g>
    </g>
    <g id="Group_25" data-name="Group 25" transform="translate(0 14.952)">
      <g id="Group_24" data-name="Group 24">
        <g id="Group_21" data-name="Group 21">
          <path id="Path_13" data-name="Path 13" d="M546.416,654.395,471.565,697.67,419.3,667.675,494.151,624.4Z" transform="translate(-419.3 -624.4)" fill="#f4f4f4"/>
        </g>
        <g id="Group_22" data-name="Group 22" transform="translate(52.265 29.995)">
          <path id="Path_14" data-name="Path 14" d="M609.851,690.8l-.045,3.478L535,737.554v-3.478Z" transform="translate(-535 -690.8)" fill="#d6d6d6"/>
        </g>
        <g id="Group_23" data-name="Group 23" transform="translate(0 43.275)">
          <path id="Path_15" data-name="Path 15" d="M471.565,750.195v3.478L419.3,723.678V720.2Z" transform="translate(-419.3 -720.2)" fill="#d6d6d6"/>
        </g>
      </g>
    </g>
    <g id="Group_30" data-name="Group 30" transform="translate(0 9.938)">
      <g id="Group_29" data-name="Group 29">
        <g id="Group_26" data-name="Group 26">
          <path id="Path_16" data-name="Path 16" d="M546.416,643.34l-74.851,43.275L419.3,656.575,494.151,613.3Z" transform="translate(-419.3 -613.3)" fill="#f4f4f4"/>
        </g>
        <g id="Group_27" data-name="Group 27" transform="translate(52.265 30.04)">
          <path id="Path_17" data-name="Path 17" d="M609.851,679.8l-.045,3.478L535,726.554v-3.478Z" transform="translate(-535 -679.8)" fill="#d6d6d6"/>
        </g>
        <g id="Group_28" data-name="Group 28" transform="translate(0 43.275)">
          <path id="Path_18" data-name="Path 18" d="M471.565,739.14v3.478L419.3,712.578V709.1Z" transform="translate(-419.3 -709.1)" fill="#d6d6d6"/>
        </g>
      </g>
    </g>
    <g id="Group_35" data-name="Group 35" transform="translate(0 4.969)">
      <g id="Group_34" data-name="Group 34">
        <g id="Group_31" data-name="Group 31">
          <path id="Path_19" data-name="Path 19" d="M546.416,632.295,471.565,675.57,419.3,645.575,494.151,602.3Z" transform="translate(-419.3 -602.3)" fill="#f4f4f4"/>
        </g>
        <g id="Group_32" data-name="Group 32" transform="translate(52.265 29.995)">
          <path id="Path_20" data-name="Path 20" d="M609.851,668.7l-.045,3.478L535,715.454v-3.478Z" transform="translate(-535 -668.7)" fill="#d6d6d6"/>
        </g>
        <g id="Group_33" data-name="Group 33" transform="translate(0 43.275)">
          <path id="Path_21" data-name="Path 21" d="M471.565,728.095v3.478L419.3,701.578V698.1Z" transform="translate(-419.3 -698.1)" fill="#d6d6d6"/>
        </g>
      </g>
    </g>
    <g id="Group_40" data-name="Group 40">
      <g id="Group_39" data-name="Group 39">
        <g id="Group_36" data-name="Group 36">
          <path id="Path_22" data-name="Path 22" d="M546.416,621.295,471.565,664.57,419.3,634.575,494.151,591.3Z" transform="translate(-419.3 -591.3)" fill="#f4f4f4"/>
        </g>
        <g id="Group_37" data-name="Group 37" transform="translate(52.265 29.995)">
          <path id="Path_23" data-name="Path 23" d="M609.851,657.7l-.045,3.478L535,704.454v-3.478Z" transform="translate(-535 -657.7)" fill="#d6d6d6"/>
        </g>
        <g id="Group_38" data-name="Group 38" transform="translate(0 43.275)">
          <path id="Path_24" data-name="Path 24" d="M471.565,717.095v3.478L419.3,690.578V687.1Z" transform="translate(-419.3 -687.1)" fill="#d6d6d6"/>
        </g>
      </g>
    </g>
  </g>
  <g id="Group_43" data-name="Group 43" transform="translate(164.157)">
    <path id="Path_25" data-name="Path 25" d="M684.8,141.056c3.433-1.988,8.221-1.717,13.507,1.31l105.614,60.983c10.48,6.053,18.973,20.734,18.927,32.8l-.813,289.331c0,6.008-2.123,10.209-5.556,12.2l-9.4,5.466c3.388-1.988,5.511-6.189,5.556-12.2l.813-289.331c.045-12.061-8.447-26.742-18.927-32.8L688.907,147.832c-5.285-3.027-10.073-3.343-13.507-1.31Z" transform="translate(-669.031 -139.783)" fill="#c5d2d3"/>
    <g id="Group_42" data-name="Group 42" transform="translate(6.776 14.147)">
      <path id="Path_26" data-name="Path 26" d="M689.4,172.772c-6.776-3.885-12.242-.768-12.287,7L676.3,469.105c0,7.77,5.421,17.256,12.2,21.141L794.11,551.229c6.776,3.885,12.242.768,12.287-7L807.21,254.9c0-7.77-5.421-17.256-12.2-21.141l-14.546-8.4c-1.039-.587-1.9-.135-1.9,1.084,0,5.059-3.569,7.092-8,4.563l-56.827-32.841c-4.382-2.53-7.951-8.673-7.951-13.732a4.114,4.114,0,0,0-1.9-3.252Z" transform="translate(-676.3 -171.102)" fill="#6573ec"/>
    </g>
    <path id="Path_27" data-name="Path 27" d="M661.3,454.716c-.045,12.061,8.447,26.742,18.927,32.8l105.613,60.983c10.48,6.053,19.018,1.175,19.063-10.841l.813-289.331c.045-12.061-8.447-26.742-18.927-32.8L681.176,154.543c-10.48-6.053-19.018-1.174-19.063,10.841Zm50.1-271.894c0,1.31-.9,1.807-2.033,1.174a4.435,4.435,0,0,1-2.033-3.523c0-1.31.9-1.807,2.033-1.174A4.436,4.436,0,0,1,711.4,182.822Zm42.417,24.484c0,.632-.452.9-.994.587l-37.674-21.773a2.207,2.207,0,0,1-.994-1.717c0-.632.452-.9.994-.587l37.674,21.773A2.208,2.208,0,0,1,753.813,207.305ZM668.076,458.6l.813-289.331c0-7.77,5.511-10.887,12.287-7l14.546,8.4a4.184,4.184,0,0,1,1.9,3.252c0,5.059,3.523,11.2,7.95,13.732l56.782,32.8c4.382,2.53,7.951.5,8-4.562,0-1.22.858-1.671,1.9-1.084l14.546,8.4c6.776,3.885,12.242,13.371,12.2,21.141l-.813,289.331c0,7.77-5.511,10.887-12.287,7L680.272,479.7C673.5,475.857,668.031,466.37,668.076,458.6Z" transform="translate(-661.299 -146.45)" fill="#47436b"/>
    <path id="Path_28" data-name="Path 28" d="M765.233,212.169c-1.129-.632-2.033-.136-2.033,1.174a4.436,4.436,0,0,0,2.033,3.523c1.129.632,2.033.136,2.033-1.174A4.435,4.435,0,0,0,765.233,212.169Z" transform="translate(-717.169 -179.321)" fill="#fff"/>
    <path id="Path_29" data-name="Path 29" d="M816.968,244.112l-37.674-21.773c-.542-.316-.994-.045-.994.587a2.207,2.207,0,0,0,.994,1.717l37.674,21.773c.542.316.994.045.994-.587A2.208,2.208,0,0,0,816.968,244.112Z" transform="translate(-725.448 -184.974)" fill="#fff"/>
  </g>
  <path id="Path_30" data-name="Path 30" d="M629.107,498.4,628.7,629.039l120.746,69.7.362-130.639Z" transform="translate(-479.269 -336.403)" fill="#a6d2dd"/>
  <path id="Path_31" data-name="Path 31" d="M750.047,590.846,629.3,521.144l.09-33.744,120.747,69.7Z" transform="translate(-479.598 -330.372)" fill="#47436b"/>
  <g id="Group_44" data-name="Group 44" transform="translate(223.921 247.689)">
    <path id="Path_32" data-name="Path 32" d="M793.69,688.1l-.09,30.492,26.516,15.314.09-30.492Z" transform="translate(-793.6 -688.1)" fill="#fff"/>
  </g>
  <g id="Group_45" data-name="Group 45" transform="translate(223.921 289.113)">
    <path id="Path_33" data-name="Path 33" d="M793.69,779.8l-.09,30.446L820.116,825.6l.09-30.492Z" transform="translate(-793.6 -779.8)" fill="#fed250"/>
  </g>
  <g id="Group_46" data-name="Group 46" transform="translate(166.235 223.432)">
    <path id="Path_34" data-name="Path 34" d="M665.9,634.4v3.93l46.438,26.833v-3.93Z" transform="translate(-665.9 -634.4)" fill="#ffefc7"/>
  </g>
  <g id="Group_47" data-name="Group 47" transform="translate(166.235 232.782)">
    <path id="Path_35" data-name="Path 35" d="M665.9,655.1v3.93l46.438,26.787v-3.93Z" transform="translate(-665.9 -655.1)" fill="#ffefc7"/>
  </g>
  <g id="Group_48" data-name="Group 48" transform="translate(166.235 242.088)">
    <path id="Path_36" data-name="Path 36" d="M665.9,675.7v3.93l46.438,26.787v-3.93Z" transform="translate(-665.9 -675.7)" fill="#ffefc7"/>
  </g>
  <g id="Group_49" data-name="Group 49" transform="translate(166.235 251.393)">
    <path id="Path_37" data-name="Path 37" d="M665.9,696.3v3.93l46.438,26.787v-3.93Z" transform="translate(-665.9 -696.3)" fill="#ffefc7"/>
  </g>
  <g id="Group_50" data-name="Group 50" transform="translate(166.235 260.699)">
    <path id="Path_38" data-name="Path 38" d="M665.9,716.9v3.93l46.438,26.833v-3.93Z" transform="translate(-665.9 -716.9)" fill="#ffefc7"/>
  </g>
  <g id="Group_51" data-name="Group 51" transform="translate(166.235 270.005)">
    <path id="Path_39" data-name="Path 39" d="M665.9,737.5v3.93l46.438,26.833v-3.93Z" transform="translate(-665.9 -737.5)" fill="#ffefc7"/>
  </g>
  <g id="Group_52" data-name="Group 52" transform="translate(166.235 279.31)">
    <path id="Path_40" data-name="Path 40" d="M665.9,758.1v3.93l46.438,26.833v-3.93Z" transform="translate(-665.9 -758.1)" fill="#ffefc7"/>
  </g>
  <g id="Group_66" data-name="Group 66" transform="translate(136.693 6.783)">
    <path id="Path_41" data-name="Path 41" d="M600.5,282.368l120.746,69.7.316-127.568-120.7-69.7Z" transform="translate(-600.5 -154.8)" fill="#a6d2dd"/>
    <path id="Path_42" data-name="Path 42" d="M601.19,154.8l120.7,69.7-.045,27.555L601.1,182.355Z" transform="translate(-600.829 -154.8)" fill="#47436b"/>
    <g id="Group_53" data-name="Group 53" transform="translate(59.628 81.085)">
      <path id="Path_43" data-name="Path 43" d="M732.545,334.3l-.045,3.93,46.483,26.787v-3.93Z" transform="translate(-732.5 -334.3)" fill="#6288a3"/>
    </g>
    <g id="Group_54" data-name="Group 54" transform="translate(59.628 90.391)">
      <path id="Path_44" data-name="Path 44" d="M732.545,354.9l-.045,3.93,46.483,26.787v-3.93Z" transform="translate(-732.5 -354.9)" fill="#6288a3"/>
    </g>
    <g id="Group_55" data-name="Group 55" transform="translate(59.628 99.696)">
      <path id="Path_45" data-name="Path 45" d="M732.545,375.5l-.045,3.93,46.483,26.787v-3.93Z" transform="translate(-732.5 -375.5)" fill="#6288a3"/>
    </g>
    <g id="Group_56" data-name="Group 56" transform="translate(59.628 109.002)">
      <path id="Path_46" data-name="Path 46" d="M732.545,396.1l-.045,3.93,46.483,26.833v-3.93Z" transform="translate(-732.5 -396.1)" fill="#6288a3"/>
    </g>
    <g id="Group_57" data-name="Group 57" transform="translate(59.628 118.307)">
      <path id="Path_47" data-name="Path 47" d="M732.545,416.7l-.045,3.93,46.483,26.833v-3.93Z" transform="translate(-732.5 -416.7)" fill="#6288a3"/>
    </g>
    <g id="Group_58" data-name="Group 58" transform="translate(59.628 127.613)">
      <path id="Path_48" data-name="Path 48" d="M732.545,437.3l-.045,3.93,46.483,26.832v-3.93Z" transform="translate(-732.5 -437.3)" fill="#6288a3"/>
    </g>
    <g id="Group_59" data-name="Group 59" transform="translate(59.628 136.918)">
      <path id="Path_49" data-name="Path 49" d="M732.545,457.9l-.045,3.93,46.483,26.833v-3.93Z" transform="translate(-732.5 -457.9)" fill="#6288a3"/>
    </g>
    <g id="Group_60" data-name="Group 60" transform="translate(59.628 146.269)">
      <path id="Path_50" data-name="Path 50" d="M732.545,478.6l-.045,3.93,46.483,26.788v-3.93Z" transform="translate(-732.5 -478.6)" fill="#6288a3"/>
    </g>
    <g id="Group_61" data-name="Group 61" transform="translate(18.701 54.749)">
      <path id="Path_51" data-name="Path 51" d="M641.99,276l-.09,71.283L668.416,362.6l.09-71.282Z" transform="translate(-641.9 -276)" fill="#fff"/>
    </g>
    <g id="Group_65" data-name="Group 65" transform="translate(8.447 15.928)">
      <g id="Group_62" data-name="Group 62">
        <path id="Path_52" data-name="Path 52" d="M622.362,190.485c-1.717-.994-3.162-.181-3.162,1.807a6.943,6.943,0,0,0,3.117,5.421c1.717.994,3.162.181,3.162-1.807A6.943,6.943,0,0,0,622.362,190.485Z" transform="translate(-619.2 -190.061)" fill="#e94272"/>
      </g>
      <g id="Group_63" data-name="Group 63" transform="translate(9.531 5.511)">
        <path id="Path_53" data-name="Path 53" d="M643.462,202.685c-1.717-.994-3.162-.181-3.162,1.807a6.943,6.943,0,0,0,3.117,5.421c1.717.994,3.162.181,3.162-1.807A6.943,6.943,0,0,0,643.462,202.685Z" transform="translate(-640.3 -202.261)" fill="#fed250"/>
      </g>
      <g id="Group_64" data-name="Group 64" transform="translate(19.018 10.977)">
        <path id="Path_54" data-name="Path 54" d="M664.462,214.785c-1.717-.994-3.162-.181-3.162,1.807a6.943,6.943,0,0,0,3.117,5.421c1.717.994,3.162.181,3.162-1.807A6.773,6.773,0,0,0,664.462,214.785Z" transform="translate(-661.3 -214.361)" fill="#6474e8"/>
      </g>
    </g>
  </g>
  <g id="Group_68" data-name="Group 68" transform="translate(229.703 25.349)">
    <g id="Group_67" data-name="Group 67">
      <path id="Path_55" data-name="Path 55" d="M908.942,254.941l-.226,79.549L806.4,275.4l.226-79.5Z" transform="translate(-806.4 -195.9)" fill="#fffffc"/>
    </g>
  </g>
  <g id="Group_69" data-name="Group 69" transform="translate(237.924 95.95)">
    <path id="Path_56" data-name="Path 56" d="M908.215,399.671a4.2,4.2,0,0,1,1.9,3.3c0,1.22-.858,1.717-1.9,1.084L826.5,356.848a4.2,4.2,0,0,1-1.9-3.3c0-1.22.858-1.717,1.9-1.084Z" transform="translate(-824.6 -352.191)" fill="#47436b"/>
  </g>
  <g id="Group_71" data-name="Group 71" transform="translate(263.356 66.323)">
    <g id="Group_70" data-name="Group 70" transform="translate(11.384 8.039)">
      <path id="Path_57" data-name="Path 57" d="M906.19,304.4l13.868,18.385-13.958,2.3Z" transform="translate(-906.1 -304.4)" fill="#fff"/>
    </g>
    <path id="Path_58" data-name="Path 58" d="M897.072,288.815c-8.9-5.15-16.126-.994-16.172,9.215s7.137,22.677,16.036,27.826,16.127.994,16.172-9.215C913.153,306.388,905.971,293.965,897.072,288.815Zm-4.788,26.516.045-20.689L906.2,313.028Z" transform="translate(-880.9 -286.604)" fill="#e94272"/>
  </g>
  <g id="Group_72" data-name="Group 72" transform="translate(282.51 156.892)">
    <path id="Path_59" data-name="Path 59" d="M1004.069,533.673l-.181,62.655L923.3,549.755l.181-62.655Z" transform="translate(-923.3 -487.1)" fill="#a6d2dd"/>
  </g>
  <path id="Path_60" data-name="Path 60" d="M923.6,504.537l80.588,46.528.045-17.391L923.645,487.1Z" transform="translate(-640.954 -330.208)" fill="#47436b"/>
  <path id="Path_61" data-name="Path 61" d="M936.7,577.252l26.562,15.314.045-28.052L936.745,549.2Z" transform="translate(-648.137 -364.256)" fill="#fff"/>
  <g id="Group_73" data-name="Group 73" transform="translate(323.075 206.943)">
    <path id="Path_62" data-name="Path 62" d="M1013.1,597.9v2.936l34.421,19.831v-2.891Z" transform="translate(-1013.1 -597.9)" fill="#e94272"/>
  </g>
  <g id="Group_74" data-name="Group 74" transform="translate(323.075 213.539)">
    <path id="Path_63" data-name="Path 63" d="M1013.1,612.5v2.891l34.421,19.876v-2.891Z" transform="translate(-1013.1 -612.5)" fill="#e94272"/>
  </g>
  <g id="Group_75" data-name="Group 75" transform="translate(323.075 220.134)">
    <path id="Path_64" data-name="Path 64" d="M1013.1,627.1v2.891l34.421,19.876v-2.936Z" transform="translate(-1013.1 -627.1)" fill="#e94272"/>
  </g>
  <g id="Group_76" data-name="Group 76" transform="translate(323.075 226.684)">
    <path id="Path_65" data-name="Path 65" d="M1013.1,641.6v2.936l34.421,19.831v-2.891Z" transform="translate(-1013.1 -641.6)" fill="#e94272"/>
  </g>
  <g id="Group_77" data-name="Group 77" transform="translate(154.987 168.654)">
    <path id="Path_66" data-name="Path 66" d="M683.372,533.629c4.969,2.891,8.989,9.848,8.989,15.539s-4.066,8-9.035,5.15l-33.337-19.244c-4.969-2.891-8.989-9.847-8.989-15.539,0-5.737,4.066-8.041,9.034-5.15Z" transform="translate(-641 -513.138)" fill="#e94272"/>
  </g>
  <g id="Group_78" data-name="Group 78" transform="translate(104.834 182.171)">
    <path id="Path_67" data-name="Path 67" d="M576.107,901.865s4.246-1.581,7.228-.632,6.46,2.981,6.6,4.246-3.794,5.33-6.911,4.879a58.776,58.776,0,0,0-11.338.045c-2.033.271-9.757,1.265-9.125-4.743C563.233,899.651,576.107,901.865,576.107,901.865Z" transform="translate(-547.818 -739.27)" fill="#fff"/>
    <path id="Path_68" data-name="Path 68" d="M542.891,854.182a11.843,11.843,0,0,1,6.143-.316c3.162.768,1.4,3.614,0,4.382a78.594,78.594,0,0,0-7.86,6.46c-2.033,1.9-9.351,4.969-8.9-.813C532.637,858.112,542.891,854.182,542.891,854.182Z" transform="translate(-531.225 -713.316)" fill="#fff"/>
    <path id="Path_69" data-name="Path 69" d="M565.175,711.466l2.53,1.9s2.981,14.455,0,26.426c-2.981,11.926-6.279,26.742-7.092,33.97-.768,7.228,0,18.7,0,18.7s-3.795,6.279-9.577,5.827c-5.827-.452-7.228-1.9-7.228-1.9s.135-15.4,3.93-27.059c3.794-11.609,2.665-32.208,2.665-32.208s-4.879,11.293-5.963,15.539-.632,22.18-.632,22.18-4.924,6.46-9.306,5.511-4.517-1.581-4.517-1.581-.316-21.231,2.349-28.911c0,0,5.014-18.385,4.7-22.948s-1.355-19.7.9-25.342,10.887,1.129,10.887,1.129Z" transform="translate(-529.974 -628.737)" fill="#cbab9f"/>
    <path id="Path_70" data-name="Path 70" d="M581.763,593.6H583.8s0,4.427-.994,6.008-2.755,3.343-3.207,5.285a21.312,21.312,0,0,0,0,5.556s-9.4,2.575-10.209-3.614a43.054,43.054,0,0,1,0-10.841Z" transform="translate(-551.395 -570.77)" fill="#f8b38d"/>
    <path id="Path_71" data-name="Path 71" d="M677.832,560.56l-.632-2.213a8.58,8.58,0,0,0,1.9-3.794c.316-2.033-1.265-5.014,0-6.279s1.4,1.716,2.214,2.213a6.5,6.5,0,0,0,1.581-3.93c.136-2.53,1.581-4.065,2.214-3.3s2.665,4.562,2.53,6.776-2.214,5.2-2.53,6.143-1.265,4.382-1.265,4.382Z" transform="translate(-610.694 -543.061)" fill="#f8b38d"/>
    <path id="Path_72" data-name="Path 72" d="M553.9,612.4l-2.214.813a17.352,17.352,0,0,0-6.415-.407c-2.846.542-6.6,7.318-4.7,14.094s2.214,5.195,2.981,9.893-.135,18.7-.135,18.7.452,7.544,10.525,11.609,19.334-1.4,19.334-1.4-.452-14.636,0-17.617,1.265-10.525,0-16.488-7.589-10.616-11.926-13.507A62.075,62.075,0,0,1,553.9,612.4Z" transform="translate(-535.504 -581.077)" fill="#505274"/>
    <path id="Path_73" data-name="Path 73" d="M592.077,606.636s-4.562,3.162-2.981,7.86,5.646,5.963,13.823,2.665,32.073-17.12,33.654-41.017c0,0-1.9-1.4-7.86,0a121.464,121.464,0,0,1-10.073,15.991s-5.647,5.059-8.628,6.324S592.077,606.636,592.077,606.636Z" transform="translate(-562.207 -560.858)" fill="#505274"/>
    <path id="Path_74" data-name="Path 74" d="M567.749,590.628c-4.608-1.807-5.6-7.725-4.834-11.926.768-4.246,9.622-10.028,9.622-10.028a5.81,5.81,0,0,1,6.143,2.168c2.53,3.3,2.665,7.724,1.4,10.209-1.265,2.53-3.162,5.963-4.246,6.911C574.751,588.956,572.04,592.344,567.749,590.628Z" transform="translate(-547.906 -557.001)" fill="#4b291d"/>
  </g>
  <g id="Group_79" data-name="Group 79" transform="translate(270.143 245.338)">
    <path id="Path_75" data-name="Path 75" d="M954.188,1070.5s-11.2,1.762-13.461,2.665-1.581,3.975.858,5.33c2.439,1.31,7.724.858,12.6,1.445s8.854,2.349,12.874-.542Z" transform="translate(-919.731 -895.408)" fill="#fdfdff"/>
    <path id="Path_76" data-name="Path 76" d="M999.818,1020.488s-6.189-1.988-9.757-1.988c-3.523,0-3.117,4.2-1.31,5.1s4.427,1.536,7.092,4.2,8.176,7.092,13.281,4.427C1009.124,1032.232,998.463,1025.818,999.818,1020.488Z" transform="translate(-946.073 -866.898)" fill="#fdfdff"/>
    <path id="Path_77" data-name="Path 77" d="M962.9,740.6s.226,5.647,1.762,8.763a50.761,50.761,0,0,1,2.891,6.189c.677,1.988,0,2.891,0,2.891s9.441.949,11.067-4.879l-1.129-7.318Z" transform="translate(-932.644 -714.533)" fill="#f8b38d"/>
    <path id="Path_78" data-name="Path 78" d="M977.029,861.373s1.762,9.757-3.343,18.385-9.08,9.531-9.08,21.276.677,25.477,3.343,31.485c2.665,5.963,3.117,27.013,1.762,31.892a11.159,11.159,0,0,1-9.306-1.129c-5.1-2.891-5.963-5.782-5.963-5.782,0-1.762.9-11.293,0-17.075s-7.092-25.7-9.08-37.674-.678-27.239-.678-27.239S966.188,857.624,977.029,861.373Z" transform="translate(-922.426 -780.467)" fill="#fed250"/>
    <path id="Path_79" data-name="Path 79" d="M996.936,870.854l1.31-8.854s2.439,21.954,1.988,31.485c0,0,0,1.536,2.665,10.615s5.1,25.026,3.749,42.327a8.525,8.525,0,0,1-8.131-1.31l-.678-.542a13.048,13.048,0,0,1-4.607-10.119c.045-5.872-.136-15.63-1.9-20.87-2.665-7.86-9.08-20.283-8.312-22.27C983.837,889.239,996.936,870.854,996.936,870.854Z" transform="translate(-943.643 -781.094)" fill="#fed250"/>
    <path id="Path_80" data-name="Path 80" d="M959.515,767.249s-6.6,1.762-9.983,4.653-6.053,8.854-6.957,15.088,1.762,13.507,2.439,17.3c.678,3.749-1.129,11.745-1.536,14.41l.226,2.439s11.067,1.31,19.063-3.975a118.156,118.156,0,0,0,13.281-10.209s-1.988-11.067,0-15.72c1.807-4.2,6.324-18.882.181-27.555a5.21,5.21,0,0,0-5.557-1.988A29.365,29.365,0,0,0,959.515,767.249Z" transform="translate(-921.4 -726.004)" fill="#3ae0c1"/>
    <path id="Path_81" data-name="Path 81" d="M903.692,705.393l3.885-4.111a14.784,14.784,0,0,1,0-8.357,12.8,12.8,0,0,0-1.942-9.983c-.406-.271-3.207.5-4.788,5.692-1.536,5.15-1.039,11.88-1.039,11.88Z" transform="translate(-898.01 -682.896)" fill="#f8b38d"/>
    <path id="Path_82" data-name="Path 82" d="M926.178,750.983s-3.659-3.117-10.616-1.039-10.073-6.6-10.073-14.139V718.73l-8.764-3.93s-1.807,20.554,0,29.543,2.846,16.714,12.377,17.979C918.634,763.632,932.908,759.521,926.178,750.983Z" transform="translate(-895.922 -700.388)" fill="#3ae0c1"/>
    <path id="Path_83" data-name="Path 83" d="M962.532,731.649s-3.975-3.975-4.2-6.866-.9-8,5.33-9.983a63.436,63.436,0,0,1,7.092,1.31c1.988.678,7.77,6.64,8.176,9.306.452,2.665-.452,8.4-2.891,10.435-2.439,1.987-5.782,2.213-7.453,2.213S963.616,735.444,962.532,731.649Z" transform="translate(-930.063 -700.388)" fill="#8f4f51"/>
  </g>
  <g id="Group_80" data-name="Group 80" transform="translate(90.087 277.464)">
    <path id="Path_84" data-name="Path 84" d="M530.4,871.578a12.769,12.769,0,0,0,2.259,2.982c2.033,2.349,3.253,3.433,6.866,1.987,3.569-1.491,2.033-8.447,2.033-8.447s-4.066,2.71-5.15,3.7C535.369,872.753,530.4,871.578,530.4,871.578Z" transform="translate(-515.461 -816.564)" fill="#fcb794"/>
    <path id="Path_85" data-name="Path 85" d="M560.413,1070.73l-.813,1.22v6.6s3.614.226,3.388,0-.136-3.3.452-5.827C564.027,1070.143,560.413,1070.73,560.413,1070.73Z" transform="translate(-531.47 -927.629)" fill="#fdfdff"/>
    <path id="Path_86" data-name="Path 86" d="M545.9,897.053s.5,11.88,2.123,23.309,1.445,24.077,3.433,34.331,1.4,13.868,1.4,13.868,4.608,2.62,6.821,1.626l.723-1.4s-1.31-8.809-.09-23.67,3.478-25.026,2.62-31.531c-.9-6.505-9.848-22.586-9.848-22.586Z" transform="translate(-523.959 -829.119)" fill="#4a3d57"/>
    <path id="Path_87" data-name="Path 87" d="M570.175,1065.186a6.125,6.125,0,0,1-1.626-1.9,3.334,3.334,0,0,0-2.123-1.852,13.342,13.342,0,0,0-5.827.09s-1.355.813-1.129,5.195a7.054,7.054,0,0,1,3.84,2.033c1.445,1.671,2.394,3.975,5.1,3.84,4.517-.226,3.117-3.614,3.117-3.614S571.846,1066.27,570.175,1065.186Z" transform="translate(-531.385 -922.401)" fill="#fdfdff"/>
    <path id="Path_88" data-name="Path 88" d="M586.4,1074.277l-.5,1.265s.5,6.324.5,8.041v1.265h3.659s.452-7.589-.768-9.667A1.911,1.911,0,0,0,586.4,1074.277Z" transform="translate(-545.89 -929.414)" fill="#fdfdff"/>
    <path id="Path_89" data-name="Path 89" d="M572.9,916.868a37.711,37.711,0,0,0,5.421,14.275,43.682,43.682,0,0,1,5.827,12.242s-2.214,12.874-1.807,20.463c.406,7.634-1.988,19.063-1.988,19.063s2.665,4.607,5.556,5.24c2.891.587,3.7-1.22,3.7-1.22s.406-13.236,2.394-21.1c1.988-7.815,7.408-20.463,5.827-30.311a108.637,108.637,0,0,0-5.421-19.424Z" transform="translate(-538.762 -842.881)" fill="#4a3d57"/>
    <path id="Path_90" data-name="Path 90" d="M541.354,902.6s-4.608,14.726-1.536,22.677S544.11,944.2,544.11,944.2a32.278,32.278,0,0,0,12.6,3.659c7.137.5,13.552-.994,17.527-1.355a6.177,6.177,0,0,0,5.15-3.478s1.943-10.028.949-15.223-6.64-19.063-6.64-19.063S542.89,905.31,541.354,902.6Z" transform="translate(-520.046 -835.479)" fill="#c04075"/>
    <path id="Path_91" data-name="Path 91" d="M585.939,772.1s.949,8.583-4.382,12.061v4.7s-6.369,1.174-9.261-4.608,7.77-8.041,7.77-8.041Z" transform="translate(-538.159 -763.93)" fill="#fcb794"/>
    <path id="Path_92" data-name="Path 92" d="M556.121,802.884s10.841,1.22,17.166,6.324c0,0,3.252,1.039,3.072,8.583-.226,7.589-1.22,15.359,0,21.909a44.9,44.9,0,0,1,0,13.687s-4.743,6.55-15.585,4.7-16.759-10.841-16.759-10.841,4.517-10.209,4.788-15.539c.316-5.331-3.569-15.359-4.788-19.424-1.22-4.111,1.22-9.8,4.788-10.435A14.743,14.743,0,0,1,556.121,802.884Z" transform="translate(-522.751 -780.168)" fill="#cbe9ed"/>
    <path id="Path_93" data-name="Path 93" d="M523.426,806.52l-1.852-2.62s-9.08,6.55-12.558,9.622-12.287,12.874-11.655,15.133,13.507,9.8,15.539,10.661c2.033.813,5.421-2.665,5.421-2.665l-7.95-8.989s9.08-6.55,11.926-11.655A11.576,11.576,0,0,0,523.426,806.52Z" transform="translate(-497.328 -781.365)" fill="#cbe9ed"/>
    <path id="Path_94" data-name="Path 94" d="M603.5,817s7.092,3.885,15.133,13.055c8,9.17,8.492,9.17,9.17,10.977.678,1.852-2.756,5.737-7.092,8.266a109.365,109.365,0,0,1-10.3,5.059l-3.659-3.433,10.3-9.848s-10.932-5.963-14.726-11.7C598.437,823.64,600.515,818.129,603.5,817Z" transform="translate(-553.728 -788.547)" fill="#cbe9ed"/>
    <path id="Path_95" data-name="Path 95" d="M610.93,889.284a3.377,3.377,0,0,0-1.536-2.8c-1.9-1.31-5.466-3.7-6.415-4.2-1.31-.677-2.394,2.3,0,5.06s2.123,2.755,5.1,2.755C610.207,890.051,610.93,890.277,610.93,889.284Z" transform="translate(-554.477 -824.286)" fill="#fcb794"/>
    <path id="Path_96" data-name="Path 96" d="M589.12,1061.95a3.061,3.061,0,0,0-3.162,1.626,6.513,6.513,0,0,0-.5,5.376c.271.316,2.665.226,4.336,1.942s3.072,5.873,5.872,6.686c2.755.813,5.466,0,6.55-1.942a3.21,3.21,0,0,0-1.671-4.517,7.63,7.63,0,0,1-4.562-4.969C594.947,1063.169,589.12,1061.95,589.12,1061.95Z" transform="translate(-545.451 -922.823)" fill="#fdfdff"/>
    <path id="Path_97" data-name="Path 97" d="M575.005,754.233s-7.363-1.446-11.248,3.072a13.325,13.325,0,0,0-3.478,11.067c.226,2.846,2.033,7.182,4.924,8.4,2.846,1.22,8.4-1.852,9.8-5.737,1.446-3.885,3.7-4.7,4.292-7.589S579.884,756.446,575.005,754.233Z" transform="translate(-531.788 -754.013)" fill="#4b291d"/>
    <path id="Path_98" data-name="Path 98" d="M557.051,781.415s-3.072-1.22-5.33,3.252c-2.259,4.517-1.039,9.622,2.665,13.688,3.7,4.111,4.111,5.1,4.111,5.1s6.55-8.809,3.478-15.359C558.858,781.641,557.051,781.415,557.051,781.415Z" transform="translate(-526.527 -768.954)" fill="#4b291d"/>
  </g>
  <g id="Group_81" data-name="Group 81" transform="translate(97.622 342.868)">
    <path id="Path_99" data-name="Path 99" d="M598.119,1069.6a4.96,4.96,0,0,1,3.343,3.117c.768,2.484-.9,4.381-1.31,5.15s-1.762.948-2.033,1.355a3.948,3.948,0,0,1-2.755.948c-.949-.18-2.3-4.608-1.355-7.453A4.962,4.962,0,0,1,598.119,1069.6Z" transform="translate(-557.693 -992.445)" fill="#fcb794"/>
    <path id="Path_100" data-name="Path 100" d="M517.391,1079.11c-1.4-6.46-.407-20.373-.407-20.373s8.763-1.671,12.422,6.776c4.472-2.394,19.108-.949,19.108-.949s4.7,15.9,5.511,22.948-1.581,16.127-4.337,22.767-5.33,26.2-5.556,27.375a20.243,20.243,0,0,0,0,3.433l-7.228-8.673s.633-13.281,1.4-20.734c.813-7.454,1.716-15.088,1.716-15.088s-4.02-12.874-7-16.894l-1.355-2.214s-.181-.271-.5-.678c.542,13.913-1.536,28.1-1.717,31.711-.181,4.02,0,24.348,0,24.348l-5.647,2.033s0-3.207-1.807-12.287-2.8-31.621-3.026-35.642S518.792,1085.569,517.391,1079.11Z" transform="translate(-515.453 -986.415)" fill="#c04075"/>
    <path id="Path_101" data-name="Path 101" d="M573.091,910.906l-.135-1.446a20.555,20.555,0,0,1,3.162-4.562,61.748,61.748,0,0,1,7.5-4.833,9.224,9.224,0,0,1,3.749-1.265c1.31,0,.406,2.033-1.988,3.569s-3.569,2.484-3.569,2.484-.361,1.672.5,1.672a1.6,1.6,0,0,1,1.31.994s-.407,2.53-1.31,3.343l-3.162,2.846L571.6,917.5Z" transform="translate(-545.584 -898.8)" fill="#fcb794"/>
    <path id="Path_102" data-name="Path 102" d="M554.845,945.861s6.505-13.281,7.318-15.359,2.078-5.1,2.078-5.1l-6.776-4.7s-8.854,9.8-9.26,10.074a90.648,90.648,0,0,0-5.1,10.525c0,.542,2.168,7.047,2.168,7.047Z" transform="translate(-529.958 -910.807)" fill="#cbe9ed"/>
    <path id="Path_103" data-name="Path 103" d="M555.374,949.729v-4.472a8.989,8.989,0,0,0,2.62-7.589l.09-2.168a29.1,29.1,0,0,1-3.93,4.743c-1.581,1.265-2.078,5.873-6.956,6.5,0,0-2.214,6.5,2.71,5.556C554.787,951.31,555.374,949.729,555.374,949.729Z" transform="translate(-531.933 -918.922)" fill="#fcb794"/>
    <path id="Path_104" data-name="Path 104" d="M542.261,926.429c.181-.451,1.4-4.111,1.4-4.111s.768-1.581,0-5.059-4.608-6.008-8.718-5.692-11.248,3.162-10.615,10.8c0,0-2.53,1.581-3.659,7.453s1.446,9.351,3.975,11.745a11.619,11.619,0,0,1,3.027,6.189s6.008-4.291,5.059-14.094C532.729,933.567,538.6,934.515,542.261,926.429Z" transform="translate(-517.51 -905.786)" fill="#965250"/>
    <path id="Path_105" data-name="Path 105" d="M518.3,961.142c-8.718,5.692-1.762,14.907.181,20.6,1.9,5.692,1.265,13.01-1.536,15.855s-2.891,7.273-2.891,7.273c.813,2.078,8.4,13.778,21.412,12.2s13.778-8.4,13.778-8.4a31.836,31.836,0,0,0-2.891-10.48c-2.575-5.375-.9-10.8-.271-16.94a69.539,69.539,0,0,0,0-12.377,40.129,40.129,0,0,0-18.521-9.667Z" transform="translate(-514.008 -931.916)" fill="#cbe9ed"/>
    <path id="Path_106" data-name="Path 106" d="M579.065,984.657s-1.988-4.608-4.969-3.117c-2.981,1.536-5.195,2.71-5.556,5.511-.406,2.8,1.807,13.958,1.491,16.714-.316,2.8,1.9,7.95,3.3,10.57,1.4,2.575,6.6,12.332,6.6,12.332l5.556-4.246s-3.975-12.694-4.337-15.088-2.033-12.964-2.033-12.964v-9.712Z" transform="translate(-543.878 -944.001)" fill="#cbe9ed"/>
    <path id="Path_107" data-name="Path 107" d="M527.689,960.687a11.619,11.619,0,0,0-3.027-6.189,11.982,11.982,0,0,1-3.975-11.745c1.129-5.872,3.659-7.454,3.659-7.454s6.189-.181,8.4,11.248C533.7,956.441,527.689,960.687,527.689,960.687Z" transform="translate(-517.529 -918.812)" fill="#965250"/>
    <path id="Path_108" data-name="Path 108" d="M534.25,1234.191s-1.4-.226-2.755,1.852a5.615,5.615,0,0,0-1.129,3.388h-2.123s-.723-5.059.5-6.866C530,1230.758,533.889,1232.067,534.25,1234.191Z" transform="translate(-521.695 -1081.326)" fill="#343254"/>
    <path id="Path_109" data-name="Path 109" d="M534.151,1221.913a2.423,2.423,0,0,1,2.394.407c.949.9.632,4.969,4.156,5.827,3.478.858.994,5.466.994,5.466s-2.846.768-4.472,0-1.942-6.957-7.589-6.55C529.588,1227.108,528.369,1220.919,534.151,1221.913Z" transform="translate(-522.5 -1075.869)" fill="#615a8d"/>
    <path id="Path_110" data-name="Path 110" d="M559.689,1239.033s-2.349,1.626-2.123,3.93a18.44,18.44,0,0,1,0,3.93h-3.252s-.407-7.273.723-10.119C556.121,1233.974,559.689,1239.033,559.689,1239.033Z" transform="translate(-536.067 -1083.639)" fill="#343254"/>
    <path id="Path_111" data-name="Path 111" d="M559,1222.7a7.7,7.7,0,0,1,3.659,4.066c1.4,3.117,2.62,4.969,4.472,5.15,1.807.181,3.569.407,4.743,1.4a4.978,4.978,0,0,1-.406,4.066,5.4,5.4,0,0,1-5.872,1.717c-1.9-.723-4.021-5.872-6.55-7.589s-4.156-1.4-4.472-1.31-1.084-6.414,3.072-8Z" transform="translate(-536.103 -1076.112)" fill="#615a8d"/>
  </g>
  <g id="Group_91" data-name="Group 91" transform="translate(90.752 122.471)">
    <g id="Group_86" data-name="Group 86">
      <g id="Group_85" data-name="Group 85">
        <g id="Group_82" data-name="Group 82" transform="translate(0 1.265)">
          <path id="Path_112" data-name="Path 112" d="M539.41,437.1l-.136,33.157L523.6,461.222l.09,8.086-8.447-12.919L498.8,446.9l.09-33.2Z" transform="translate(-498.8 -413.7)" fill="#3ae0c1"/>
        </g>
        <g id="Group_83" data-name="Group 83" transform="translate(40.475 23.354)">
          <path id="Path_113" data-name="Path 113" d="M588.535,463.91l2.214-1.31-.09,33.2-2.259,1.265Z" transform="translate(-588.4 -462.6)" fill="#27c4a6"/>
        </g>
        <g id="Group_84" data-name="Group 84" transform="translate(0.09)">
          <path id="Path_114" data-name="Path 114" d="M499,412.165l2.259-1.265,40.475,23.354-2.214,1.31Z" transform="translate(-499 -410.9)" fill="#27c4a6"/>
        </g>
      </g>
    </g>
    <g id="Group_90" data-name="Group 90" transform="translate(6.46 19.634)">
      <g id="Group_87" data-name="Group 87">
        <path id="Path_115" data-name="Path 115" d="M516.533,454.833c-1.9-1.084-3.433-.226-3.433,1.987a7.549,7.549,0,0,0,3.433,5.918c1.9,1.084,3.433.226,3.433-1.942A7.562,7.562,0,0,0,516.533,454.833Z" transform="translate(-513.1 -454.365)" fill="#fff"/>
      </g>
      <g id="Group_88" data-name="Group 88" transform="translate(10.39 6.008)">
        <path id="Path_116" data-name="Path 116" d="M539.533,468.133c-1.9-1.084-3.433-.226-3.433,1.988a7.549,7.549,0,0,0,3.433,5.918c1.9,1.084,3.433.226,3.433-1.942A7.332,7.332,0,0,0,539.533,468.133Z" transform="translate(-536.1 -467.665)" fill="#fff"/>
      </g>
      <g id="Group_89" data-name="Group 89" transform="translate(20.825 12.016)">
        <path id="Path_117" data-name="Path 117" d="M562.633,481.433c-1.9-1.084-3.433-.226-3.433,1.988a7.55,7.55,0,0,0,3.433,5.918c1.9,1.084,3.433.226,3.433-1.988A7.55,7.55,0,0,0,562.633,481.433Z" transform="translate(-559.2 -480.965)" fill="#fff"/>
      </g>
    </g>
  </g>
  <g id="Group_101" data-name="Group 101" transform="translate(85.602 288.254)">
    <g id="Group_96" data-name="Group 96">
      <g id="Group_95" data-name="Group 95">
        <g id="Group_92" data-name="Group 92" transform="translate(0 1.265)">
          <path id="Path_118" data-name="Path 118" d="M525.752,802.789l-.09,31.3L510.8,825.556l-.181,6.911-7.679-11.474L487.4,812l.09-31.3Z" transform="translate(-487.4 -780.7)" fill="#fed250"/>
        </g>
        <g id="Group_93" data-name="Group 93" transform="translate(38.261 22.135)">
          <path id="Path_119" data-name="Path 119" d="M572.19,828.12l2.078-1.219-.09,31.3-2.078,1.22Z" transform="translate(-572.1 -826.9)" fill="#f4bd37"/>
        </g>
        <g id="Group_94" data-name="Group 94" transform="translate(0.09)">
          <path id="Path_120" data-name="Path 120" d="M487.6,779.165l2.078-1.265,38.261,22.134-2.078,1.22Z" transform="translate(-487.6 -777.9)" fill="#f4bd37"/>
        </g>
      </g>
    </g>
    <g id="Group_100" data-name="Group 100" transform="translate(6.053 18.567)">
      <g id="Group_97" data-name="Group 97">
        <path id="Path_121" data-name="Path 121" d="M504.052,819.453c-1.807-1.039-3.252-.226-3.252,1.852a7.1,7.1,0,0,0,3.252,5.6c1.807,1.039,3.252.226,3.252-1.852A7.1,7.1,0,0,0,504.052,819.453Z" transform="translate(-500.8 -819.002)" fill="#fffffc"/>
      </g>
      <g id="Group_98" data-name="Group 98" transform="translate(9.848 5.692)">
        <path id="Path_122" data-name="Path 122" d="M525.852,832.052c-1.807-1.039-3.252-.226-3.252,1.852a7.1,7.1,0,0,0,3.252,5.6c1.807,1.039,3.252.226,3.252-1.852A7.1,7.1,0,0,0,525.852,832.052Z" transform="translate(-522.6 -831.601)" fill="#fffffc"/>
      </g>
      <g id="Group_99" data-name="Group 99" transform="translate(19.695 11.384)">
        <path id="Path_123" data-name="Path 123" d="M547.652,844.653c-1.807-1.039-3.252-.226-3.252,1.852a7.1,7.1,0,0,0,3.252,5.6c1.807,1.039,3.252.226,3.252-1.852A7.032,7.032,0,0,0,547.652,844.653Z" transform="translate(-544.4 -844.202)" fill="#fffffc"/>
      </g>
    </g>
  </g>
  <g id="Group_114" data-name="Group 114" transform="translate(0 245.928)">
    <g id="Group_105" data-name="Group 105" transform="translate(43.682)">
      <g id="Group_102" data-name="Group 102" transform="translate(13.778 7.996)">
        <path id="Path_124" data-name="Path 124" d="M438.968,701.9l.181,90.933-13.868,8L425.1,709.9Z" transform="translate(-425.1 -701.9)" fill="#3ae0c1"/>
      </g>
      <g id="Group_103" data-name="Group 103" transform="translate(0 7.996)">
        <path id="Path_125" data-name="Path 125" d="M408.558,800.828l-13.732-8L394.6,701.9l13.778,8Z" transform="translate(-394.6 -701.9)" fill="#2ac6a8"/>
      </g>
      <g id="Group_104" data-name="Group 104">
        <path id="Path_126" data-name="Path 126" d="M408.378,700.191l-13.778-8,13.868-8,13.778,8Z" transform="translate(-394.6 -684.2)" fill="#56f4d5"/>
      </g>
    </g>
    <g id="Group_109" data-name="Group 109" transform="translate(21.818 22.903)">
      <g id="Group_106" data-name="Group 106" transform="translate(13.778 7.996)">
        <path id="Path_127" data-name="Path 127" d="M390.568,752.6l.136,80.678-13.868,8L376.7,760.6Z" transform="translate(-376.7 -752.6)" fill="#e94272"/>
      </g>
      <g id="Group_107" data-name="Group 107" transform="translate(0 7.996)">
        <path id="Path_128" data-name="Path 128" d="M360.113,841.274l-13.732-8L346.2,752.6l13.778,8Z" transform="translate(-346.2 -752.6)" fill="#db2e68"/>
      </g>
      <g id="Group_108" data-name="Group 108">
        <path id="Path_129" data-name="Path 129" d="M359.978,750.891l-13.778-8,13.868-8,13.778,8Z" transform="translate(-346.2 -734.9)" fill="#f4588c"/>
      </g>
    </g>
    <g id="Group_113" data-name="Group 113" transform="translate(0 47.838)">
      <g id="Group_110" data-name="Group 110" transform="translate(13.732 7.996)">
        <path id="Path_130" data-name="Path 130" d="M342.168,807.8l.136,68.391-13.868,8L328.3,815.8Z" transform="translate(-328.3 -807.8)" fill="#fed250"/>
      </g>
      <g id="Group_111" data-name="Group 111" transform="translate(0 7.996)">
        <path id="Path_131" data-name="Path 131" d="M311.768,884.187l-13.778-8L297.9,807.8l13.732,8Z" transform="translate(-297.9 -807.8)" fill="#f4bd37"/>
      </g>
      <g id="Group_112" data-name="Group 112">
        <path id="Path_132" data-name="Path 132" d="M311.633,806.091l-13.732-8,13.868-8,13.733,8Z" transform="translate(-297.9 -790.1)" fill="#ffd366"/>
      </g>
    </g>
  </g>
  <g id="Group_117" data-name="Group 117" transform="translate(165.874 127.394)">
    <path id="Path_133" data-name="Path 133" d="M706.687,902.76l31.576,17.979v-6.414L706.1,896.3Z" transform="translate(-687.579 -681.956)" fill="#272747"/>
    <path id="Path_134" data-name="Path 134" d="M767.987,713.06l31.576,17.979v-6.369L767.4,706.6Z" transform="translate(-721.188 -577.948)" fill="#272747"/>
    <path id="Path_135" data-name="Path 135" d="M745.287,776.26l31.576,17.979v-6.369L744.7,769.8Z" transform="translate(-708.742 -612.599)" fill="#272747"/>
    <path id="Path_136" data-name="Path 136" d="M688.032,955.014l31.531,18.024v-6.414L687.4,948.6Z" transform="translate(-677.326 -710.63)" fill="#272747"/>
    <path id="Path_137" data-name="Path 137" d="M817.987,540.914l31.576,18.024v-6.415L817.4,534.5Z" transform="translate(-748.602 -483.59)" fill="#272747"/>
    <path id="Path_138" data-name="Path 138" d="M800.632,598.715l31.531,18.024v-6.415L800,592.3Z" transform="translate(-739.062 -515.28)" fill="#272747"/>
    <path id="Path_139" data-name="Path 139" d="M722.032,842.96l31.53,17.979v-6.37L721.4,836.5Z" transform="translate(-695.968 -649.169)" fill="#272747"/>
    <g id="Group_115" data-name="Group 115">
      <path id="Path_140" data-name="Path 140" d="M839.8,424.736l4.246-2.936,5.873,3.478-4.156,2.846Z" transform="translate(-760.883 -421.8)" fill="#424270"/>
      <path id="Path_141" data-name="Path 141" d="M761.318,429.5l-79.1,252.967-4.021,1.445,68.979-229.974,9.983-21.593Z" transform="translate(-672.282 -426.022)" fill="#272747"/>
      <path id="Path_142" data-name="Path 142" d="M671.018,683.255l78.962-251.567-5.963-3.388L665.1,679.822Z" transform="translate(-665.1 -425.364)" fill="#343259"/>
    </g>
    <path id="Path_143" data-name="Path 143" d="M808.2,541.8l36.319,20.734v-6.414L812.356,538.1Z" transform="translate(-743.558 -485.564)" fill="#343259"/>
    <path id="Path_144" data-name="Path 144" d="M790.8,599.649l36.319,20.689v-6.369L794.956,595.9Z" transform="translate(-734.018 -517.254)" fill="#343259"/>
    <path id="Path_145" data-name="Path 145" d="M785.487,652.815l31.576,18.024v-6.414L784.9,646.4Z" transform="translate(-730.783 -544.942)" fill="#272747"/>
    <path id="Path_146" data-name="Path 146" d="M775.7,653.749l36.319,20.689v-6.369L779.856,650Z" transform="translate(-725.739 -546.916)" fill="#343259"/>
    <path id="Path_147" data-name="Path 147" d="M758.2,714l36.319,20.734v-6.414L762.356,710.3Z" transform="translate(-716.144 -579.977)" fill="#343259"/>
    <path id="Path_148" data-name="Path 148" d="M735.5,777.2l36.319,20.734v-6.414L739.656,773.5Z" transform="translate(-703.698 -614.628)" fill="#343259"/>
    <path id="Path_149" data-name="Path 149" d="M712.2,843.9l36.319,20.734v-6.414L716.356,840.2Z" transform="translate(-690.923 -651.198)" fill="#343259"/>
    <path id="Path_150" data-name="Path 150" d="M696.9,903.649l36.319,20.689v-6.369L701.056,899.9Z" transform="translate(-682.535 -683.929)" fill="#343259"/>
    <path id="Path_151" data-name="Path 151" d="M678.2,955.9l36.319,20.734v-6.414L682.356,952.2Z" transform="translate(-672.282 -712.604)" fill="#343259"/>
    <g id="Group_116" data-name="Group 116" transform="translate(34.783 19.198)">
      <path id="Path_152" data-name="Path 152" d="M916.9,467.236l4.2-2.936,5.872,3.478-4.156,2.846Z" transform="translate(-837.938 -464.3)" fill="#424270"/>
      <path id="Path_153" data-name="Path 153" d="M838.373,472l-79.1,252.967-3.975,1.445,68.934-229.974,9.983-21.593Z" transform="translate(-749.337 -468.522)" fill="#272747"/>
      <path id="Path_154" data-name="Path 154" d="M748.063,725.755l78.917-251.567-5.918-3.388L742.1,722.321Z" transform="translate(-742.1 -467.864)" fill="#343259"/>
    </g>
    <path id="Path_155" data-name="Path 155" d="M748,836.9s-3.478,1.491-4.111,3.478c-.678,1.988-.316,4.427.994,5.421s4.789,1.31,7.409,2.981c2.62,1.626,4.924,4.788,7.092,5.285,2.123.5,6.414-1.174,5.421-3.3s-6.55-6.55-6.55-6.55Z" transform="translate(-708.117 -649.388)" fill="#fdfdff"/>
    <path id="Path_156" data-name="Path 156" d="M708.5,912.977a37.654,37.654,0,0,0,0,4.924c.181,2.62,1.807,3.3,5.285,2.485s3.3-4.292,7.092-5.782,5.918-.316,7.092-1.626-.5-2.981-3.614-4.111c-3.117-1.174-8.9,0-8.9,0Z" transform="translate(-688.852 -688.559)" fill="#fdfdff"/>
    <path id="Path_157" data-name="Path 157" d="M741.212,738.5c-7.589,0-22.722,2.62-22.722,2.62l-11.022,6.911-13.868-2.3s.813,10.209,3.3,17.933,1.626,19.921,1.31,23.038-.181,24.845,2.123,33.112c0,0,4.111,1.988,7.228,0s3.614-3.3,3.614-3.3-.5-18.611,0-24.213c.407-4.336,3.072-18.295,3.84-27.962,8.267.09,16.578-6.279,16.578-6.279s-7.318,14.636-8.854,17.617-3.523,7.5-3.523,7.5,5.917,6.324,12.332,7.137c0,0,7.092-16.127,11.022-23.219s9.4-16.8,9.215-21.412C751.737,741.165,748.8,738.5,741.212,738.5Z" transform="translate(-680.726 -595.438)" fill="#4a3d57"/>
    <path id="Path_158" data-name="Path 158" d="M769.8,642.439l1.807-1.807s6.1-.5,8.221,0,8.718,2.53,8.9,5.872-1.807,1.762-5.1,0-4.111-.542-4.337,0c-.271.542-1.581,3.162,0,4.517,1.581,1.31,2.033.768,2.71,2.71.678,1.9-1.987.587-4.608-1.988a51.633,51.633,0,0,0-5.782-4.7Z" transform="translate(-722.504 -541.659)" fill="#f8b38d"/>
    <path id="Path_159" data-name="Path 159" d="M739.543,634.3s10.887,1.491,12.874,2.981V643.7s-10.119.5-12.874,1.988-4.743-5.692-4.743-5.692Z" transform="translate(-703.315 -538.308)" fill="#fed250"/>
    <path id="Path_160" data-name="Path 160" d="M730.564,602.5s4.7,2.71,5.692,4.7,0,8.673-1.491,9.667-1.084,5.195-1.175,8.176c0,0-5.014,1.491-8.718,0s-4.472-6.414-4.472-6.414Z" transform="translate(-695.419 -520.873)" fill="#f8b38d"/>
    <path id="Path_161" data-name="Path 161" d="M702.231,632.8s-5.918,1.31-9.035,4.291-2.485,12.694-.994,16.127c1.49,3.478.813,31.44,0,34.557,0,0,2.62,6.6,8.4,8.718s12.332,2.62,17.3,0c4.924-2.62,5.421-6.6,5.421-6.6s-1.174-11.2-.677-18.295,5.421-20.1-.5-25.839c-5.918-5.782-10.39-7.544-10.39-7.544S705.167,637.859,702.231,632.8Z" transform="translate(-679.283 -537.486)" fill="#fed250"/>
    <path id="Path_162" data-name="Path 162" d="M843.8,673.914l.994-3.614s.994-3.3,2.62-4.427c1.626-1.174.994.271,3.117,1.536s5.421,1.9,7.589.9c2.123-.994,2.8,0,1.807,2.62s-1.807,9.215-15.133,5.918Z" transform="translate(-763.076 -555.381)" fill="#f8b38d"/>
    <path id="Path_163" data-name="Path 163" d="M753.817,662.907s-4.788-7.725,0-5.285c4.788,2.485,16.94,16.172,24.529,15.043,7.589-1.174,15.991-6.911,15.991-6.911s4.788,3.795,1.491,8.221a26.929,26.929,0,0,1-19.244,10.39C763.845,685.177,747.854,671.309,753.817,662.907Z" transform="translate(-712.574 -550.834)" fill="#fed250"/>
    <path id="Path_164" data-name="Path 164" d="M725.339,603.047a6.115,6.115,0,0,0-3.027-6.6c-4.066-2.3-8.357,3.478-10.661,5.285s-3.478,8.4-1.807,11.338c1.626,2.981,3.478,4.607,7.408,4.924s6.234-4.111,6.1-6.731C723.171,608.648,725.339,603.047,725.339,603.047Z" transform="translate(-689.201 -517.264)" fill="#8f4f51"/>
  </g>
  <g id="Group_119" data-name="Group 119" transform="translate(168.765 405.342)">
    <g id="Group_118" data-name="Group 118" transform="translate(0.09 0.09)">
      <path id="Path_165" data-name="Path 165" d="M785.514,1052.9l-3.569,2.078-.045,10.661,3.569-2.078Z" transform="translate(-732.12 -1045.853)" fill="#c5d2d3"/>
      <path id="Path_166" data-name="Path 166" d="M685.659,1054.978l-3.614-2.078L682,1063.561l3.614,2.078Z" transform="translate(-677.347 -1045.853)" fill="#c5d2d3"/>
      <path id="Path_167" data-name="Path 167" d="M713,1064.4v-.136a176.225,176.225,0,0,0,.09-.271c0-.045.045-.09.045-.135s.045-.091.045-.135.045-.091.045-.136.045-.09.045-.135.045-.09.045-.135.045-.091.045-.136c.045-.045.045-.091.09-.135s.045-.09.09-.136.09-.135.135-.181.045-.09.09-.09c.045-.045.09-.135.136-.181,0-.045.045-.045.045-.09.09-.09.181-.226.271-.316l.09-.09.226-.226c.045-.045.09-.09.135-.09l.135-.136.136-.135a.624.624,0,0,1,.181-.135l.135-.136c.045-.045.136-.09.181-.135a.235.235,0,0,1,.181-.09c.045-.045.136-.09.181-.135.09-.045.136-.09.226-.135a4.968,4.968,0,0,1,.5-.271c.045-.045.09-.045.136-.09.135-.045.271-.136.406-.181.045,0,.09-.045.135-.045a5.214,5.214,0,0,0,.5-.226c.045,0,.045,0,.09-.045a1.876,1.876,0,0,0,.452-.181c.045,0,.135-.045.181-.045.09-.045.181-.045.271-.09.091,0,.135-.045.226-.045.09-.045.181-.045.271-.09.09,0,.135-.045.226-.045s.181-.045.271-.045.135-.045.226-.045.181-.045.271-.045.136-.045.226-.045c.181-.045.407-.045.587-.09h.09a2.194,2.194,0,0,1,.542-.045h.181a.767.767,0,0,0,.316-.045h1.807c.316,0,.678.045.994.045h.045c.316.045.677.045.994.09h.09c.135,0,.271.045.406.045a.272.272,0,0,1,.181.045c.09,0,.226.045.316.045.045,0,.09.045.181.045.135.045.226.045.361.09.045,0,.136.045.181.045.09.045.226.045.316.09.045,0,.135.045.181.045.181.045.316.09.5.136.045,0,.045,0,.09.045.181.045.361.136.542.181.045,0,.09.045.135.045a4.586,4.586,0,0,1,.678.316c.045,0,.045,0,.045.045.226.136.452.226.678.361,2.033,1.175,3.072,2.756,3.072,4.291l.045-10.661c0-1.536-1.039-3.117-3.072-4.291-.226-.136-.452-.226-.678-.362a.044.044,0,0,1-.045-.045c-.226-.09-.452-.226-.677-.316a.044.044,0,0,1-.045-.045H729.4a2.543,2.543,0,0,0-.542-.181c-.045,0-.045,0-.09-.045-.181-.045-.316-.09-.5-.136-.045,0-.045,0-.09-.045-.045,0-.045,0-.09-.045-.09-.045-.226-.045-.316-.091-.045,0-.135-.045-.181-.045-.135-.045-.226-.045-.361-.09a.165.165,0,0,1-.136-.045h-.045c-.09,0-.226-.045-.316-.045-.045,0-.135-.045-.181-.045a1.244,1.244,0,0,0-.407-.045h-.09a7.389,7.389,0,0,0-.994-.09h0a7.358,7.358,0,0,0-.994-.045H722.26a.774.774,0,0,0-.316.045h-.226c-.181,0-.361.045-.542.045h-.09c-.181.045-.406.045-.587.091h-.045a.166.166,0,0,0-.135.045c-.09,0-.181.045-.271.045s-.135.045-.226.045-.181.045-.271.045-.135.045-.226.045a.641.641,0,0,0-.271.09c-.09,0-.135.045-.226.045-.09.045-.181.045-.271.09-.045,0-.09,0-.09.046-.045,0-.045,0-.091.045-.09.045-.181.045-.271.09l.045-8.763V1037.3l-.045,10.661V1049c-.045,0-.135.045-.181.045s-.045,0-.09.046a1.666,1.666,0,0,0-.5.226c-.045,0-.09.045-.135.045-.136.045-.271.135-.407.181-.045.045-.09.045-.135.09-.181.09-.316.181-.5.271-.045.045-.09.045-.136.09s-.091.045-.136.091-.135.09-.181.135a.236.236,0,0,1-.181.09c-.045.045-.135.09-.181.135l-.135.136a.624.624,0,0,1-.181.135l-.136.136-.135.135-.045.045-.045.045c-.09.09-.181.135-.226.226l-.09.09c-.091.09-.181.226-.271.316h0c0,.045-.045.045-.045.09-.045.045-.091.135-.136.181s-.045.09-.09.09c-.045.045-.09.136-.135.181a.044.044,0,0,1-.045.045c0,.045-.045.045-.045.09-.045.045-.045.09-.091.135,0,.045-.045.09-.045.135a.166.166,0,0,0-.045.135c0,.045,0,.045-.045.09v.046c0,.045-.045.09-.045.135s-.045.09-.045.135-.045.09-.045.135v.135a.166.166,0,0,1-.045.136v.452L713,1064.719v-.316Z" transform="translate(-694.344 -1037.3)" fill="#c5d2d3"/>
      <path id="Path_168" data-name="Path 168" d="M729.927,1073.734h-5.1c-.09.18-.135.361-.226.542,0,.045-.045.045-.045.09a4.92,4.92,0,0,1-.271.5c0,.045-.045.045-.045.09a3.4,3.4,0,0,1-.316.542h0c-.09.181-.226.316-.316.5-.045.046-.045.091-.09.091-.136.181-.226.316-.361.5-.045.045-.045.09-.091.09-.09.135-.226.271-.316.406l-.136.136c-.135.135-.226.271-.361.407-.045.045-.045.09-.09.09a5.41,5.41,0,0,1-.542.5v4.2l-3.885,2.259-3.614-2.078c-.407.135-.768.271-1.174.406a3.086,3.086,0,0,0-.361.135c-.226.045-.407.136-.632.181l-.407.136c-.226.045-.452.136-.678.181a1.318,1.318,0,0,1-.406.09c-.271.045-.5.135-.768.181a1.13,1.13,0,0,0-.316.09c-.362.09-.723.136-1.084.226a3.469,3.469,0,0,1-.678.09c-.09,0-.226.045-.316.045-.316.046-.678.09-1.039.136v2.936H695.641v-2.936a4.451,4.451,0,0,0-.768-.09c-.226-.045-.5-.09-.723-.136-.135,0-.271-.045-.407-.045a5.759,5.759,0,0,1-.858-.181c-.09,0-.181-.045-.271-.045-.407-.09-.768-.181-1.174-.271-.09-.045-.226-.045-.316-.09-.271-.09-.587-.136-.858-.226a1.385,1.385,0,0,0-.361-.091c-.271-.09-.5-.135-.768-.226a.835.835,0,0,0-.316-.09c-.361-.136-.723-.226-1.084-.362l-3.569,2.078-3.975-2.3v-4.156a14.431,14.431,0,0,1-2.755-3.388,6.8,6.8,0,0,1-.542-1.175h-5.1l-.045-6.188-.045,10.661.045,6.189h4.833v6.64l7.544,4.382,3.569-2.078a10.146,10.146,0,0,0,1.084.361.855.855,0,0,0,.361.09c.271.09.5.135.768.226.045,0,.135.045.181.045s.135.045.181.045c.271.09.587.135.858.226.09.045.226.045.316.09.407.09.768.181,1.174.271h.045c.09,0,.135.046.226.046a5.763,5.763,0,0,1,.858.181,1.26,1.26,0,0,0,.407.045c.226.045.5.091.723.136a.272.272,0,0,1,.181.045c.181.045.361.045.542.09v2.936h10.661v-2.936c.316-.045.678-.09.994-.136.09,0,.226-.045.316-.045a3.524,3.524,0,0,1,.632-.091h.045a9.256,9.256,0,0,0,1.084-.225,1.16,1.16,0,0,0,.316-.09c.271-.045.542-.135.768-.181.135-.045.271-.045.407-.09.226-.045.452-.136.677-.181l.407-.136c.226-.045.452-.136.632-.181.09-.045.135-.045.226-.09.045,0,.09-.045.135-.045.406-.135.813-.271,1.174-.406l3.614,2.078,7.5-4.381v-6.64h4.7Z" transform="translate(-671.7 -1053.858)" fill="#c5d2d3"/>
    </g>
    <path id="Path_169" data-name="Path 169" d="M724.713,1057.066h5.1l-.045-6.189h-5.1a12.205,12.205,0,0,0-3.3-4.562l3.569-2.078-7.544-4.382-3.568,2.078a37.42,37.42,0,0,0-7.906-1.9V1037.1H695.261v2.936a37.417,37.417,0,0,0-7.905,1.9l-3.614-2.078-7.5,4.382,3.614,2.078a11.908,11.908,0,0,0-3.252,4.562h-5.1l.045,6.189h5.1a12.21,12.21,0,0,0,3.3,4.563l-3.569,2.078,7.544,4.382,3.569-2.078a37.4,37.4,0,0,0,7.905,1.9v2.936h10.661v-2.936a37.428,37.428,0,0,0,7.905-1.9l3.614,2.078,7.5-4.382-3.614-2.078A11.276,11.276,0,0,0,724.713,1057.066Zm-16.669,1.175a16.267,16.267,0,0,1-14.726,0c-4.066-2.349-4.111-6.189-.045-8.538a16.268,16.268,0,0,1,14.726,0C712.11,1052.1,712.11,1055.892,708.045,1058.241Z" transform="translate(-671.5 -1037.1)" fill="#fff"/>
  </g>
  <g id="Group_121" data-name="Group 121" transform="translate(227.083 434.343)">
    <g id="Group_120" data-name="Group 120" transform="translate(0 0.09)">
      <path id="Path_170" data-name="Path 170" d="M888.5,1113.4l-2.8,1.581v8.267l2.756-1.626Z" transform="translate(-847.258 -1108.024)" fill="#c5d2d3"/>
      <path id="Path_171" data-name="Path 171" d="M811.4,1114.981l-2.8-1.581v8.221l2.8,1.626Z" transform="translate(-804.986 -1108.024)" fill="#c5d2d3"/>
      <path id="Path_172" data-name="Path 172" d="M832.545,1122.325v-.316a.166.166,0,0,1,.045-.135c0-.045,0-.091.045-.091,0-.045.045-.09.045-.135a.157.157,0,0,1,.045-.09c0-.045.045-.09.045-.135a.158.158,0,0,1,.045-.09c0-.045.045-.09.045-.135s.045-.045.045-.09c.045-.045.045-.09.09-.135,0-.045.045-.045.045-.091l.135-.135.045-.045a.547.547,0,0,1,.226-.226l.045-.045.181-.181.09-.09c.045-.045.09-.045.135-.091s.09-.045.09-.09c.045-.045.09-.045.135-.09s.09-.045.135-.09.09-.045.135-.09.09-.045.136-.091.09-.045.135-.09.136-.09.181-.136a1.363,1.363,0,0,1,.362-.181.158.158,0,0,0,.09-.045,2.187,2.187,0,0,1,.316-.136c.045,0,.045-.045.09-.045a1.6,1.6,0,0,0,.407-.18c.045,0,.045,0,.09-.045.135-.045.226-.091.361-.136.045,0,.09-.045.135-.045s.135-.045.181-.045.09-.045.181-.045c.045,0,.136-.045.181-.045s.09-.045.181-.045.135-.046.226-.046c.045,0,.135-.045.181-.045.09,0,.136-.045.226-.045a.342.342,0,0,0,.181-.045c.135-.045.316-.045.452-.09h.045c.135,0,.271-.045.407-.045h1.807a4.4,4.4,0,0,1,.768.045h0a4.452,4.452,0,0,1,.768.09h.045c.09,0,.226.045.316.045a.165.165,0,0,1,.136.045,1.967,1.967,0,0,1,.226.045.165.165,0,0,1,.135.046c.09,0,.181.045.271.045.045,0,.09.045.135.045a1.946,1.946,0,0,1,.226.045c.045,0,.09.045.136.045a3.1,3.1,0,0,1,.361.136h.045l.406.135c.045,0,.045.045.09.045.181.09.362.135.542.226a.044.044,0,0,1,.045.045l.542.271c1.581.9,2.394,2.123,2.349,3.3l.045-8.221c0-1.219-.768-2.394-2.349-3.3l-.542-.271a.044.044,0,0,1-.045-.045,2.746,2.746,0,0,0-.542-.226h-.09l-.407-.135h-.045a3.072,3.072,0,0,1-.361-.135h-.136a1.95,1.95,0,0,1-.226-.045c-.045,0-.09-.045-.135-.045-.09,0-.181-.045-.271-.045-.045,0-.045,0-.09-.045h-.045a1.966,1.966,0,0,1-.226-.045.167.167,0,0,1-.136-.045c-.09,0-.226-.045-.316-.045h-.045c-.271-.045-.5-.045-.768-.09h0c-.271,0-.5-.045-.768-.045h-1.807c-.136,0-.271.045-.407.045h-.045a1.6,1.6,0,0,0-.452.09h-.045a.166.166,0,0,0-.136.045c-.09,0-.136.045-.226.045-.045,0-.135.045-.181.045-.09,0-.136.045-.226.045-.045,0-.09.045-.181.045-.045,0-.136.045-.181.045s-.09.045-.181.045c-.045,0-.135.045-.181.045s-.045,0-.09.045h-.045c-.045,0-.135.045-.181.045V1101.5l-.045,8.221v.813c-.045,0-.09.045-.136.045s-.045,0-.09.045a1.605,1.605,0,0,0-.407.181c-.045,0-.045.045-.09.045a2.194,2.194,0,0,1-.316.136.158.158,0,0,0-.09.045,2.661,2.661,0,0,0-.361.181c-.045,0-.045.045-.09.045s-.045.046-.09.046c-.045.045-.09.045-.135.09s-.09.045-.136.09-.09.045-.135.09-.091.045-.136.091-.091.045-.135.09-.091.045-.091.09c-.045.045-.09.045-.135.09l-.045.045-.045.045-.181.18-.045.045c-.09.09-.135.181-.226.226h0l-.045.045-.136.136c0,.045-.045.045-.045.09-.045.045-.045.09-.091.136a23.458,23.458,0,0,1-.09.09c0,.045-.045.09-.045.136s-.045.045-.045.09-.045.09-.045.136a.044.044,0,0,1-.045.045v.045c0,.045-.045.09-.045.136s0,.09-.045.09a.167.167,0,0,1-.045.136v.632l-.045,8.222v-.136C832.5,1122.415,832.5,1122.37,832.545,1122.325Z" transform="translate(-818.09 -1101.5)" fill="#c5d2d3"/>
      <path id="Path_173" data-name="Path 173" d="M845.547,1129.653h-3.93a1.6,1.6,0,0,1-.181.407c0,.045,0,.045-.045.09-.045.136-.136.271-.181.406,0,.045-.045.045-.045.091-.09.135-.135.271-.226.406h0l-.271.406c0,.045-.045.045-.045.09a2.525,2.525,0,0,1-.271.361l-.091.09c-.09.09-.18.226-.271.317-.045.045-.09.09-.09.135-.09.09-.181.226-.271.316l-.09.09-.407.407v3.252l-2.981,1.762-2.8-1.626c-.316.09-.587.226-.9.316-.09.045-.181.045-.271.09-.181.045-.316.09-.5.136-.09.045-.226.045-.316.09l-.542.136a2.86,2.86,0,0,1-.316.09c-.181.046-.407.091-.587.135-.09,0-.136.046-.226.046-.271.045-.542.135-.858.18-.181.045-.361.045-.5.091-.091,0-.181.045-.271.045a5.035,5.035,0,0,1-.768.091v2.259h-8.222V1138.1c-.181-.045-.406-.045-.587-.091s-.361-.045-.587-.09c-.091,0-.226-.045-.316-.045l-.678-.135c-.045,0-.135-.045-.18-.045a6.646,6.646,0,0,1-.9-.226,1.964,1.964,0,0,1-.226-.045c-.226-.045-.452-.136-.678-.181-.09-.045-.181-.045-.271-.091-.181-.045-.407-.135-.587-.181-.09-.045-.181-.045-.271-.09l-.813-.271-2.756,1.626-3.072-1.762v-3.207a10.224,10.224,0,0,1-2.123-2.62,4,4,0,0,1-.407-.9h-3.93l-.045-4.743-.045,8.221.045,4.743h3.7v5.149l5.828,3.388,2.755-1.626.813.271c.091.045.181.045.271.09.181.045.407.135.587.181.045,0,.09.045.135.045s.09.045.136.045c.226.046.452.136.677.181a1.962,1.962,0,0,1,.226.045c.316.09.587.136.9.226h.045a.272.272,0,0,1,.18.045l.678.136c.09,0,.226.045.316.045.181.045.361.045.587.09a.166.166,0,0,1,.136.045c.135,0,.271.045.451.045v2.259H827.3v-2.259a4.451,4.451,0,0,1,.768-.09c.09,0,.181-.045.271-.045.181-.045.316-.045.5-.09h0a5.833,5.833,0,0,0,.858-.181c.09,0,.135-.045.226-.045.18-.045.407-.09.587-.136a2.968,2.968,0,0,1,.316-.09l.542-.135c.091-.046.226-.046.316-.09.181-.045.316-.091.5-.135.045,0,.136-.045.181-.045a.157.157,0,0,0,.09-.045c.317-.09.632-.226.9-.316l2.8,1.626,5.782-3.388v-5.15h3.614Z" transform="translate(-800.6 -1114.385)" fill="#c5d2d3"/>
    </g>
    <path id="Path_174" data-name="Path 174" d="M841.617,1116.659h3.93l-.045-4.743h-3.93a9.514,9.514,0,0,0-2.53-3.523l2.755-1.626-5.827-3.388L833.215,1105a26.7,26.7,0,0,0-6.1-1.446V1101.3h-8.221v2.259a29.307,29.307,0,0,0-6.1,1.446l-2.8-1.626-5.782,3.388,2.8,1.626a8.883,8.883,0,0,0-2.484,3.523H800.6l.045,4.743h3.93a9.51,9.51,0,0,0,2.53,3.523l-2.755,1.626,5.827,3.388,2.756-1.626a26.723,26.723,0,0,0,6.1,1.446v2.259h8.221v-2.259a29.336,29.336,0,0,0,6.1-1.446l2.8,1.626,5.782-3.388-2.8-1.626A9.362,9.362,0,0,0,841.617,1116.659Zm-12.829.9a12.535,12.535,0,0,1-11.338,0c-3.162-1.807-3.162-4.743-.045-6.595a12.536,12.536,0,0,1,11.338,0C831.859,1112.819,831.9,1115.755,828.788,1117.562Z" transform="translate(-800.6 -1101.3)" fill="#fff"/>
  </g>
  <g id="Group_123" data-name="Group 123" transform="translate(184.169 452.321)">
    <g id="Group_122" data-name="Group 122" transform="translate(0 0.09)">
      <path id="Path_175" data-name="Path 175" d="M793.4,1153.1l-2.756,1.626-.045,8.221,2.755-1.581Z" transform="translate(-752.203 -1147.77)" fill="#c5d2d3"/>
      <path id="Path_176" data-name="Path 176" d="M716.346,1154.726l-2.8-1.626-.045,8.267,2.8,1.581Z" transform="translate(-709.931 -1147.77)" fill="#c5d2d3"/>
      <path id="Path_177" data-name="Path 177" d="M737.445,1162.125v-.316a.166.166,0,0,1,.045-.135c0-.045,0-.091.045-.091,0-.045.045-.09.045-.136a.158.158,0,0,1,.045-.09c0-.045.045-.09.045-.135a.158.158,0,0,1,.045-.09c0-.045.045-.09.045-.135s.045-.045.045-.09c.045-.045.045-.09.09-.136,0-.045.045-.045.045-.09l.135-.136.045-.045a.542.542,0,0,1,.226-.226l.045-.045.181-.181.09-.09c.045-.045.09-.045.135-.09s.09-.045.09-.09c.045-.045.09-.045.136-.09s.09-.045.136-.09.09-.045.135-.09.09-.045.135-.09.09-.045.136-.09.135-.09.181-.136a1.353,1.353,0,0,1,.361-.18.158.158,0,0,0,.091-.045,2.177,2.177,0,0,1,.316-.136c.045,0,.045-.045.09-.045a1.6,1.6,0,0,0,.406-.181c.045,0,.045,0,.09-.045.135-.045.226-.09.361-.135.045,0,.09-.045.136-.045s.135-.045.181-.045.09-.045.181-.045c.045,0,.136-.045.181-.045s.091-.045.181-.045.135-.045.226-.045c.045,0,.135-.045.181-.045.09,0,.135-.045.226-.045a.343.343,0,0,0,.181-.045c.135-.045.316-.045.452-.09h.045c.136,0,.271-.045.407-.045h1.807a4.372,4.372,0,0,1,.768.045h0a4.464,4.464,0,0,1,.768.09h.045c.09,0,.226.045.316.045a.166.166,0,0,1,.136.045,1.96,1.96,0,0,1,.226.045.166.166,0,0,1,.135.045c.09,0,.181.045.271.045.045,0,.09.045.136.045a1.959,1.959,0,0,1,.226.045c.045,0,.09.045.136.045a3.085,3.085,0,0,1,.361.135h.045l.406.135c.045,0,.045.045.09.045.181.09.362.135.542.226a.044.044,0,0,1,.045.045l.542.271c1.581.9,2.394,2.123,2.349,3.3l.045-8.221c0-1.22-.768-2.394-2.349-3.3l-.542-.271a.044.044,0,0,1-.045-.045,2.76,2.76,0,0,0-.542-.226h-.09l-.406-.135h-.045a3.143,3.143,0,0,1-.361-.135h-.136a1.961,1.961,0,0,1-.226-.045c-.045,0-.09-.045-.135-.045-.09,0-.181-.045-.271-.045-.045,0-.045,0-.091-.045h-.045a1.957,1.957,0,0,1-.226-.045.165.165,0,0,1-.135-.045c-.09,0-.226-.045-.316-.045h-.045c-.271-.045-.5-.045-.768-.09h0c-.271,0-.5-.045-.768-.045h-1.807c-.136,0-.271.045-.407.045h-.045a1.608,1.608,0,0,0-.452.09h-.045a.166.166,0,0,0-.136.045c-.09,0-.136.045-.226.045-.045,0-.135.045-.181.045-.09,0-.135.045-.226.045-.045,0-.09.045-.181.045-.045,0-.135.045-.181.045s-.09.045-.181.045c-.045,0-.136.045-.181.045s-.045,0-.09.045h-.045c-.045,0-.136.045-.181.045V1141.3l-.045,8.221v.813c-.045,0-.09.045-.136.045s-.045,0-.09.045a1.6,1.6,0,0,0-.407.181c-.045,0-.045.045-.09.045a2.222,2.222,0,0,1-.316.135.157.157,0,0,0-.091.045,2.659,2.659,0,0,0-.361.181c-.045,0-.045.045-.09.045s-.045.045-.09.045c-.045.045-.09.045-.135.09s-.09.045-.135.09-.091.045-.136.091-.09.045-.135.09-.091.045-.136.09-.09.045-.09.09c-.045.045-.09.045-.135.091l-.045.045-.045.045-.181.181-.045.045c-.09.09-.136.181-.226.226h0l-.045.045-.135.136c0,.045-.045.045-.045.09-.045.045-.045.09-.09.135a6363151317.086,6363151317.086,0,0,0-.09.091c0,.045-.045.09-.045.135s-.045.045-.045.09-.045.09-.045.135a.044.044,0,0,1-.045.045v.045c0,.045-.045.09-.045.136s0,.09-.045.09a.166.166,0,0,1-.045.135v.633l-.045,8.221v-.135A.342.342,0,0,0,737.445,1162.125Z" transform="translate(-723.035 -1141.3)" fill="#c5d2d3"/>
      <path id="Path_178" data-name="Path 178" d="M750.547,1169.453h-3.93a1.612,1.612,0,0,1-.181.407c0,.045,0,.045-.045.09-.045.135-.135.271-.181.406,0,.045-.045.045-.045.09-.091.135-.135.271-.226.407h0l-.271.406c0,.045-.045.045-.045.09a2.512,2.512,0,0,1-.271.361l-.09.09c-.091.09-.181.226-.271.316-.045.045-.09.091-.09.135-.09.091-.181.226-.271.316l-.091.09-.406.407v3.252l-2.981,1.762-2.8-1.626c-.316.09-.587.226-.9.316-.09.045-.181.045-.271.09-.181.045-.316.09-.5.135-.09.045-.226.045-.316.09l-.542.135a2.868,2.868,0,0,1-.316.091c-.18.045-.406.09-.587.135-.09,0-.135.045-.226.045-.271.045-.542.135-.858.181-.181.045-.361.045-.5.09-.09,0-.181.045-.271.045a5.04,5.04,0,0,1-.768.09v2.259h-8.221V1177.9c-.181-.045-.407-.045-.587-.09s-.361-.045-.587-.09c-.09,0-.226-.045-.316-.045l-.678-.135c-.045,0-.135-.045-.181-.045a6.624,6.624,0,0,1-.9-.226,1.952,1.952,0,0,1-.226-.045c-.226-.045-.452-.135-.677-.18-.091-.045-.181-.045-.271-.091-.181-.045-.406-.135-.587-.181-.09-.045-.181-.045-.271-.09l-.813-.271-2.755,1.626-3.072-1.762v-3.207a10.23,10.23,0,0,1-2.123-2.62,3.966,3.966,0,0,1-.406-.9h-3.93l-.045-4.743-.045,8.221.045,4.743h3.7v5.15l5.827,3.388,2.755-1.626.813.271c.09.045.181.045.271.09.181.045.406.136.587.181.045,0,.09.045.135.045s.09.045.136.045c.226.045.452.136.678.181a1.952,1.952,0,0,1,.226.045c.316.09.587.136.9.226h.045a.271.271,0,0,1,.181.045l.678.135c.09,0,.226.045.316.045.181.045.362.045.587.09a.166.166,0,0,1,.136.045c.135,0,.271.045.452.045v2.258H732.3v-2.258a4.436,4.436,0,0,1,.768-.091c.09,0,.181-.045.271-.045.181-.045.317-.045.5-.09h0a5.81,5.81,0,0,0,.858-.181c.09,0,.135-.045.226-.045.181-.045.407-.09.587-.135a2.891,2.891,0,0,1,.316-.091l.542-.135c.09-.045.226-.045.316-.09.181-.045.316-.09.5-.136.045,0,.135-.045.181-.045a.158.158,0,0,0,.09-.045c.316-.09.633-.226.9-.316l2.8,1.626,5.782-3.388v-5.15h3.614Z" transform="translate(-705.6 -1154.184)" fill="#c5d2d3"/>
    </g>
    <path id="Path_179" data-name="Path 179" d="M746.617,1156.459h3.93l-.045-4.743h-3.93a9.512,9.512,0,0,0-2.53-3.524l2.755-1.626-5.827-3.388-2.756,1.626a26.715,26.715,0,0,0-6.1-1.446V1141.1h-8.221v2.258a29.35,29.35,0,0,0-6.1,1.446l-2.8-1.626-5.782,3.388,2.8,1.626a8.887,8.887,0,0,0-2.485,3.524H705.6l.045,4.743h3.93a9.511,9.511,0,0,0,2.53,3.524l-2.756,1.626,5.827,3.388,2.756-1.626a26.706,26.706,0,0,0,6.1,1.445v2.259h8.221v-2.259a29.3,29.3,0,0,0,6.1-1.445l2.8,1.626,5.782-3.388-2.8-1.626A10.309,10.309,0,0,0,746.617,1156.459Zm-12.874.9a12.535,12.535,0,0,1-11.338,0c-3.162-1.807-3.162-4.743-.045-6.6a12.536,12.536,0,0,1,11.338,0C736.859,1152.574,736.859,1155.51,733.742,1157.362Z" transform="translate(-705.6 -1141.1)" fill="#fff"/>
  </g>
</svg>
