<svg id="ic_user" xmlns="http://www.w3.org/2000/svg" width="25.806" height="25.806" viewBox="0 0 25.806 25.806">
  <g id="account-circle">
    <path id="Path_180" data-name="Path 180" d="M12.9,0a12.9,12.9,0,1,0,12.9,12.9A12.941,12.941,0,0,0,12.9,0Zm0,3.871a3.8,3.8,0,0,1,3.871,3.871A3.8,3.8,0,0,1,12.9,11.613,3.8,3.8,0,0,1,9.032,7.742,3.8,3.8,0,0,1,12.9,3.871Zm0,18.322a9.413,9.413,0,0,1-7.742-4.129c0-2.581,5.161-4,7.742-4s7.742,1.419,7.742,4A9.413,9.413,0,0,1,12.9,22.193Z" fill="#f9f9f9"/>
  </g>
</svg>
